<?xml version="1.0" encoding="UTF-8" standalone="no"?>
<!-- Created with Inkscape (http://www.inkscape.org/) -->
<svg
   xmlns:svg="http://www.w3.org/2000/svg"
   xmlns="http://www.w3.org/2000/svg"
   xmlns:xlink="http://www.w3.org/1999/xlink"
   version="1.0"
   width="100"
   height="114.19586"
   id="svg2">
  <defs
     id="defs5" />
  <path
     d="M 49.889809,103.58894 C 43.519206,92.42006 33.987395,97.55639 23.136136,89.65499 C 12.094282,81.614821 10.52828,68.11138 1.2679187,68.129608 C 9.8906077,58.564609 2.0617687,51.116251 6.2145927,38.351611 C 10.440349,25.362778 22.778557,19.6856 19.903656,10.887775 C 31.677029,16.129959 36.356422,6.3696505 49.779607,6.3696505 C 63.421511,6.3696505 72.625506,16.321084 80.047372,10.875531 C 78.726482,23.616155 89.427821,25.028417 93.613991,37.763887 C 97.879201,50.739819 91.270121,62.592992 98.732081,68.166344 C 86.061696,70.976948 87.970551,81.630517 77.084265,89.48357 C 66.006774,97.47456 52.700523,94.79089 49.889809,103.58894 z"
     id="path3241"
     style="fill:#ffff00;fill-rule:evenodd;stroke:none;stroke-width:1px;stroke-linecap:butt;stroke-linejoin:miter;stroke-opacity:1" />
  <g
     transform="matrix(0.7836315,0,0,0.7836315,-3.7239233,-4.2438225)"
     id="g2402">
    <path
       d="M 30.281384,18.954545 C 47.934842,22.39099 57.409887,5.4155844 68.340912,5.4155844 C 78.989577,5.4155844 95.719699,22.364479 107.00217,18.954545 C 97.524894,25.961545 85.771229,13.238095 68.340912,13.238095 C 51.211451,13.238095 45.243006,25.691023 30.281384,18.954545 z"
       id="path2384"
       style="fill:#550000;fill-rule:evenodd;stroke:none;stroke-width:1px;stroke-linecap:butt;stroke-linejoin:miter;stroke-opacity:1" />
    <use
       transform="matrix(0.3122647,0.9499951,-0.9499951,0.3122647,115.51854,-15.756458)"
       id="use2386"
       x="0"
       y="0"
       width="1"
       height="1"
       xlink:href="#path2384" />
    <use
       transform="matrix(-0.8110066,0.5850369,-0.5850369,-0.8110066,166.37889,90.06586)"
       id="use2396"
       x="0"
       y="0"
       width="136"
       height="139"
       xlink:href="#path2384" />
    <use
       transform="matrix(-0.808397,-0.5886376,0.5886376,-0.808397,81.804489,170.44132)"
       id="use2398"
       x="0"
       y="0"
       width="136"
       height="139"
       xlink:href="#path2384" />
    <use
       transform="matrix(0.3093762,-0.9509397,0.9509397,0.3093762,-20.973465,114.93478)"
       id="use2400"
       x="0"
       y="0"
       width="136"
       height="139"
       xlink:href="#path2384" />
  </g>
  <path
     d="M 119.44373,70.252167 A 41.669914,38.36039 0 1 1 36.103897,70.252167 A 41.669914,38.36039 0 1 1 119.44373,70.252167 z"
     transform="matrix(0.9602665,0,0,1.0431131,-24.683586,-21.412006)"
     id="path2415"
     style="opacity:1;fill:none;fill-opacity:1;fill-rule:nonzero;stroke:#ee2222;stroke-width:1.56595874;stroke-linecap:butt;stroke-linejoin:miter;stroke-miterlimit:1;stroke-dasharray:none;stroke-dashoffset:0;stroke-opacity:1" />
  <g
     transform="matrix(0.7836315,0,0,0.7836315,-3.0486303,-4.2438225)"
     id="g3194"
     style="stroke:#229922;stroke-opacity:1">
    <path
       d="M 75.218614,99.58658 C 74.880103,94.68881 75.210514,66.017908 101.39394,75.21645 C 99.45284,80.687892 99.17323,93.87013 67.695887,93.87013 C 36.218544,93.87013 35.938938,80.687892 33.997835,75.21645 C 60.18126,66.017908 60.511671,94.68881 60.17316,99.58658"
       id="path3187"
       style="fill:none;fill-rule:evenodd;stroke:#229922;stroke-width:2;stroke-linecap:round;stroke-linejoin:round;stroke-opacity:1" />
    <path
       d="M 67.695887,99.58658 C 67.357376,94.68881 65.997271,44.220036 101.39394,53.704545 C 83.206087,81.13919 48.32691,53.554113 67.695887,33.396104 C 83.436416,54.615273 55.213256,82.504839 33.997835,53.704545 C 69.479464,44.197271 68.034398,94.68881 67.695887,99.58658 z"
       id="path3192"
       style="fill:none;fill-rule:evenodd;stroke:#229922;stroke-width:2;stroke-linecap:round;stroke-linejoin:round;stroke-opacity:1" />
  </g>
  <path
     d="M 38.387371,79.114982 C 42.225731,83.189419 46.307282,81.232323 50,81.232323 C 53.609379,81.232323 57.86727,83.148968 61.61263,79.114982 C 55.773286,81.920116 52.359839,79.198 50,79.198337 C 47.640161,79.198674 46.172827,80.391322 43.321709,80.346569 C 41.930569,80.324737 40.320168,80.008291 38.387371,79.114982 z"
     id="path3198"
     style="fill:#5555ff;fill-opacity:1;fill-rule:evenodd;stroke:none;stroke-width:1px;stroke-linecap:butt;stroke-linejoin:miter;stroke-opacity:1" />
  <g
     transform="translate(-168.77487,-42.892737)"
     id="g3204" />
  <path
     d="M 0.56578472,114.11168 L 0.56578472,113.9701 L 0.76092772,113.9701 C 0.98030272,113.9701 1.1359067,113.89996 1.2277397,113.75966 C 1.2838577,113.67548 1.3119177,113.48671 1.3119187,113.19336 L 1.3119187,109.8415 C 1.3119177,109.51754 1.2762057,109.31475 1.2047817,109.23311 C 1.1052967,109.12088 0.95734572,109.06476 0.76092772,109.06476 L 0.56578472,109.06476 L 0.56578472,108.92318 L 2.6779167,108.92318 C 3.4533827,108.92319 4.0432737,109.01119 4.4475927,109.1872 C 4.8519037,109.36321 5.1771407,109.65657 5.4233057,110.06725 C 5.6694607,110.47795 5.7925407,110.95242 5.7925457,111.49065 C 5.7925407,112.21255 5.5731647,112.81583 5.1344187,113.3005 C 4.6420927,113.84129 3.8921337,114.11168 2.8845387,114.11168 L 0.56578472,114.11168 z M 2.0465727,113.7367 C 2.3705337,113.80813 2.6422027,113.84384 2.8615807,113.84384 C 3.4533827,113.84384 3.9444267,113.63594 4.3347157,113.22015 C 4.7249967,112.80435 4.9201387,112.24061 4.9201437,111.52891 C 4.9201387,110.81212 4.7249967,110.24709 4.3347157,109.83385 C 3.9444267,109.42061 3.4431787,109.21399 2.8309697,109.21399 C 2.6013887,109.21399 2.3399227,109.25097 2.0465727,109.32495 L 2.0465727,113.7367 z M 7.7324927,109.20633 L 7.7324927,111.25724 L 8.8727387,111.25724 C 9.1686377,111.25724 9.3663307,111.21261 9.4658187,111.12332 C 9.5984617,111.00599 9.6724367,110.79936 9.6877457,110.50346 L 9.8293197,110.50346 L 9.8293197,112.30948 L 9.6877457,112.30948 C 9.6520297,112.05695 9.6163167,111.89496 9.5806087,111.82354 C 9.5346897,111.73426 9.4594377,111.66411 9.3548557,111.61309 C 9.2502657,111.56208 9.0895597,111.53657 8.8727387,111.53656 L 7.7324927,111.53656 L 7.7324927,113.24693 C 7.7324917,113.47651 7.7426947,113.61617 7.7631037,113.66591 C 7.7835087,113.71566 7.8192217,113.75519 7.8702407,113.78453 C 7.9212567,113.81386 8.0181897,113.82853 8.1610417,113.82853 L 9.0410967,113.82853 C 9.3344447,113.82853 9.5474437,113.80813 9.6800927,113.76731 C 9.8127347,113.7265 9.9402787,113.64614 10.062726,113.52626 C 10.220877,113.3681 10.382857,113.12959 10.548669,112.81073 L 10.701722,112.81073 L 10.254042,114.11168 L 6.2555317,114.11168 L 6.2555317,113.9701 L 6.4391957,113.9701 C 6.5616367,113.9701 6.6777017,113.94077 6.7873907,113.8821 C 6.8690177,113.84129 6.9244997,113.78007 6.9538357,113.69844 C 6.9831707,113.61681 6.9978377,113.44973 6.9978387,113.19719 L 6.9978387,109.8262 C 6.9978377,109.49714 6.9646767,109.29434 6.8983537,109.21781 C 6.8065217,109.11578 6.6534687,109.06476 6.4391957,109.06476 L 6.2555317,109.06476 L 6.2555317,108.92318 L 10.254042,108.92318 L 10.311437,110.0596 L 10.16221,110.0596 C 10.108638,109.78666 10.049329,109.59917 9.9842857,109.49714 C 9.9192347,109.3951 9.8229387,109.3173 9.6953977,109.26372 C 9.5933587,109.22547 9.4135217,109.20634 9.1558867,109.20633 L 7.7324927,109.20633 z M 12.492443,111.68196 L 12.492443,113.19336 C 12.492441,113.51988 12.528153,113.72267 12.59958,113.80175 C 12.696511,113.91399 12.843187,113.9701 13.039607,113.9701 L 13.238576,113.9701 L 13.238576,114.11168 L 11.015481,114.11168 L 11.015481,113.9701 L 11.210624,113.9701 C 11.429999,113.9701 11.586878,113.89868 11.681262,113.75584 C 11.732278,113.67675 11.757787,113.48927 11.757788,113.19336 L 11.757788,109.8415 C 11.757787,109.51499 11.723351,109.3122 11.654477,109.23311 C 11.554992,109.12088 11.407041,109.06476 11.210624,109.06476 L 11.015481,109.06476 L 11.015481,108.92318 L 12.917165,108.92318 C 13.381423,108.92319 13.747475,108.97102 14.015321,109.06667 C 14.28316,109.16234 14.508913,109.32368 14.69258,109.5507 C 14.876239,109.77773 14.968072,110.04685 14.968076,110.35806 C 14.968072,110.78151 14.82841,111.12587 14.549093,111.39117 C 14.269767,111.65646 13.875018,111.7891 13.364845,111.7891 C 13.239849,111.7891 13.104652,111.78018 12.959254,111.76232 C 12.813852,111.74447 12.658248,111.71768 12.492443,111.68196 L 12.492443,111.68196 z M 12.492443,111.46386 C 12.627638,111.48938 12.747529,111.50851 12.852118,111.52126 C 12.956701,111.53401 13.045983,111.54039 13.11996,111.54039 C 13.38525,111.54039 13.614191,111.43772 13.806785,111.23237 C 13.999374,111.02703 14.09567,110.7611 14.095673,110.43458 C 14.09567,110.21011 14.049754,110.00158 13.957925,109.80897 C 13.866091,109.61639 13.735996,109.47226 13.56764,109.37661 C 13.399279,109.28095 13.207963,109.23312 12.993692,109.23311 C 12.863594,109.23312 12.696511,109.25735 12.492443,109.30581 L 12.492443,111.46386 z M 18.832664,112.37453 L 16.823843,112.37453 L 16.471821,113.19336 C 16.385091,113.39488 16.341725,113.54538 16.341727,113.64487 C 16.341725,113.72395 16.37935,113.79346 16.454603,113.85341 C 16.529852,113.91335 16.692472,113.95225 16.942459,113.9701 L 16.942459,114.11168 L 15.308618,114.11168 L 15.308618,113.9701 C 15.525443,113.93185 15.665742,113.8821 15.729515,113.82088 C 15.859608,113.69844 16.003733,113.44973 16.161889,113.07475 L 17.987046,108.80457 L 18.120968,108.80457 L 19.926994,113.12066 C 20.072389,113.46759 20.204397,113.6927 20.323018,113.79601 C 20.441629,113.89932 20.606799,113.95735 20.818527,113.9701 L 20.818527,114.11168 L 18.771443,114.11168 L 18.771443,113.9701 C 18.978061,113.9599 19.117722,113.92547 19.190425,113.8668 C 19.263122,113.80813 19.299472,113.7367 19.299476,113.65252 C 19.299472,113.54028 19.248454,113.36299 19.146423,113.12066 L 18.832664,112.37453 z M 18.725527,112.09138 L 17.845472,109.99455 L 16.942459,112.09138 L 18.725527,112.09138 z M 26.205994,114.11168 L 24.820864,114.11168 L 23.064581,111.68579 C 22.934484,111.6909 22.828622,111.69344 22.746996,111.69344 C 22.713833,111.69344 22.67812,111.69281 22.639859,111.69153 C 22.601594,111.69025 22.562055,111.68834 22.521243,111.68579 L 22.521243,113.19336 C 22.521241,113.51988 22.556953,113.72267 22.628379,113.80175 C 22.725311,113.91399 22.870712,113.9701 23.064581,113.9701 L 23.267376,113.9701 L 23.267376,114.11168 L 21.044281,114.11168 L 21.044281,113.9701 L 21.239424,113.9701 C 21.458799,113.9701 21.615678,113.89868 21.710061,113.75584 C 21.763629,113.67675 21.790413,113.48927 21.790415,113.19336 L 21.790415,109.8415 C 21.790413,109.51499 21.754701,109.3122 21.683277,109.23311 C 21.583792,109.12088 21.435841,109.06476 21.239424,109.06476 L 21.044281,109.06476 L 21.044281,108.92318 L 22.934485,108.92318 C 23.485474,108.92319 23.891702,108.96337 24.15317,109.04371 C 24.414633,109.12407 24.636559,109.27202 24.818951,109.48757 C 25.001335,109.70312 25.092529,109.96012 25.092534,110.25857 C 25.092529,110.57743 24.988581,110.85421 24.780687,111.08889 C 24.572787,111.32357 24.250739,111.48938 23.81454,111.58631 L 24.885912,113.07475 C 25.130792,113.41656 25.34124,113.6436 25.517256,113.75584 C 25.693262,113.86808 25.922841,113.9395 26.205994,113.9701 L 26.205994,114.11168 z M 22.521243,111.44473 C 22.569708,111.44473 22.611797,111.44537 22.647512,111.44665 C 22.683222,111.44792 22.712557,111.44856 22.735516,111.44856 C 23.230386,111.44856 23.603452,111.34142 23.854717,111.12714 C 24.105976,110.91288 24.231607,110.63993 24.23161,110.30831 C 24.231607,109.98436 24.130209,109.72098 23.927417,109.51818 C 23.724619,109.31539 23.456139,109.21399 23.121975,109.21399 C 22.974023,109.21399 22.773778,109.23822 22.521243,109.28668 L 22.521243,111.44473 z M 30.678969,108.92318 L 30.736364,110.13996 L 30.590963,110.13996 C 30.562899,109.92569 30.524636,109.77263 30.476174,109.6808 C 30.397092,109.53285 30.291868,109.4238 30.160502,109.35364 C 30.029128,109.2835 29.856305,109.24843 29.642035,109.24842 L 28.911207,109.24842 L 28.911207,113.2125 C 28.911204,113.53136 28.94564,113.73032 29.014518,113.80941 C 29.111448,113.91654 29.260674,113.9701 29.462198,113.9701 L 29.642035,113.9701 L 29.642035,114.11168 L 27.441898,114.11168 L 27.441898,113.9701 L 27.625561,113.9701 C 27.844935,113.9701 28.000539,113.90379 28.092373,113.77114 C 28.14849,113.68951 28.17655,113.5033 28.176552,113.2125 L 28.176552,109.24842 L 27.552861,109.24842 C 27.310526,109.24843 27.138341,109.26629 27.036306,109.30199 C 26.90366,109.35046 26.790146,109.44357 26.695764,109.58131 C 26.601381,109.71906 26.545261,109.90527 26.527405,110.13996 L 26.382005,110.13996 L 26.443227,108.92318 L 30.678969,108.92318 z M 32.573,109.20633 L 32.573,111.25724 L 33.713245,111.25724 C 34.009145,111.25724 34.206838,111.21261 34.306325,111.12332 C 34.438968,111.00599 34.512944,110.79936 34.528252,110.50346 L 34.669826,110.50346 L 34.669826,112.30948 L 34.528252,112.30948 C 34.492537,112.05695 34.456824,111.89496 34.421116,111.82354 C 34.375196,111.73426 34.299945,111.66411 34.195362,111.61309 C 34.090773,111.56208 33.930067,111.53657 33.713245,111.53656 L 32.573,111.53656 L 32.573,113.24693 C 32.572998,113.47651 32.583202,113.61617 32.603611,113.66591 C 32.624016,113.71566 32.659728,113.75519 32.710748,113.78453 C 32.761763,113.81386 32.858697,113.82853 33.001548,113.82853 L 33.881603,113.82853 C 34.174952,113.82853 34.38795,113.80813 34.5206,113.76731 C 34.653242,113.7265 34.780786,113.64614 34.903232,113.52626 C 35.061383,113.3681 35.223364,113.12959 35.389176,112.81073 L 35.542229,112.81073 L 35.094549,114.11168 L 31.096039,114.11168 L 31.096039,113.9701 L 31.279702,113.9701 C 31.402144,113.9701 31.518209,113.94077 31.627897,113.8821 C 31.709525,113.84129 31.765007,113.78007 31.794343,113.69844 C 31.823677,113.61681 31.838345,113.44973 31.838345,113.19719 L 31.838345,109.8262 C 31.838345,109.49714 31.805183,109.29434 31.738861,109.21781 C 31.647029,109.11578 31.493975,109.06476 31.279702,109.06476 L 31.096039,109.06476 L 31.096039,108.92318 L 35.094549,108.92318 L 35.151944,110.0596 L 35.002717,110.0596 C 34.949145,109.78666 34.889836,109.59917 34.824793,109.49714 C 34.759742,109.3951 34.663446,109.3173 34.535905,109.26372 C 34.433866,109.22547 34.254029,109.20634 33.996393,109.20633 L 32.573,109.20633 z M 38.932354,114.11168 L 36.927359,109.74584 L 36.927359,113.2125 C 36.927357,113.53136 36.961795,113.73032 37.03067,113.80941 C 37.125051,113.91654 37.274277,113.9701 37.47835,113.9701 L 37.662013,113.9701 L 37.662013,114.11168 L 35.855987,114.11168 L 35.855987,113.9701 L 36.039651,113.9701 C 36.259027,113.9701 36.41463,113.90379 36.506463,113.77114 C 36.562582,113.68951 36.590641,113.5033 36.590642,113.2125 L 36.590642,109.82237 C 36.590641,109.59279 36.565132,109.42699 36.514116,109.32495 C 36.478402,109.25097 36.412718,109.18912 36.31706,109.13937 C 36.221401,109.08963 36.06771,109.06476 35.855987,109.06476 L 35.855987,108.92318 L 37.325296,108.92318 L 39.207849,112.98292 L 41.05979,108.92318 L 42.529099,108.92318 L 42.529099,109.06476 L 42.349262,109.06476 C 42.127329,109.06476 41.97045,109.13109 41.878624,109.26372 C 41.822499,109.34536 41.794439,109.53158 41.794445,109.82237 L 41.794445,113.2125 C 41.794439,113.53136 41.830151,113.73032 41.901582,113.80941 C 41.995959,113.91654 42.145185,113.9701 42.349262,113.9701 L 42.529099,113.9701 L 42.529099,114.11168 L 40.325136,114.11168 L 40.325136,113.9701 L 40.508799,113.9701 C 40.730722,113.9701 40.886326,113.90379 40.975611,113.77114 C 41.031725,113.68951 41.059785,113.5033 41.05979,113.2125 L 41.05979,109.74584 L 39.058622,114.11168 L 38.932354,114.11168 z M 44.327473,109.20633 L 44.327473,111.25724 L 45.467718,111.25724 C 45.763618,111.25724 45.961311,111.21261 46.060798,111.12332 C 46.193441,111.00599 46.267417,110.79936 46.282725,110.50346 L 46.424299,110.50346 L 46.424299,112.30948 L 46.282725,112.30948 C 46.247009,112.05695 46.211297,111.89496 46.175588,111.82354 C 46.129668,111.73426 46.054418,111.66411 45.949835,111.61309 C 45.845245,111.56208 45.68454,111.53657 45.467718,111.53656 L 44.327473,111.53656 L 44.327473,113.24693 C 44.327471,113.47651 44.337675,113.61617 44.358084,113.66591 C 44.378489,113.71566 44.414201,113.75519 44.46522,113.78453 C 44.516236,113.81386 44.61317,113.82853 44.756021,113.82853 L 45.636076,113.82853 C 45.929425,113.82853 46.142423,113.80813 46.275073,113.76731 C 46.407715,113.7265 46.535259,113.64614 46.657705,113.52626 C 46.815856,113.3681 46.977837,113.12959 47.143648,112.81073 L 47.296702,112.81073 L 46.849022,114.11168 L 42.850511,114.11168 L 42.850511,113.9701 L 43.034175,113.9701 C 43.156617,113.9701 43.272682,113.94077 43.38237,113.8821 C 43.463998,113.84129 43.51948,113.78007 43.548816,113.69844 C 43.57815,113.61681 43.592817,113.44973 43.592818,113.19719 L 43.592818,109.8262 C 43.592817,109.49714 43.559656,109.29434 43.493334,109.21781 C 43.401502,109.11578 43.248448,109.06476 43.034175,109.06476 L 42.850511,109.06476 L 42.850511,108.92318 L 46.849022,108.92318 L 46.906416,110.0596 L 46.75719,110.0596 C 46.703617,109.78666 46.644309,109.59917 46.579265,109.49714 C 46.514214,109.3951 46.417919,109.3173 46.290378,109.26372 C 46.188339,109.22547 46.008502,109.20634 45.750866,109.20633 L 44.327473,109.20633 z M 47.377055,108.92318 L 48.785142,108.92318 L 51.957166,112.81455 L 51.957166,109.82237 C 51.957162,109.50351 51.92145,109.30454 51.85003,109.22547 C 51.755642,109.11833 51.606416,109.06476 51.402349,109.06476 L 51.222512,109.06476 L 51.222512,108.92318 L 53.028538,108.92318 L 53.028538,109.06476 L 52.844874,109.06476 C 52.625492,109.06476 52.469889,109.13109 52.378062,109.26372 C 52.321938,109.34536 52.293878,109.53158 52.293883,109.82237 L 52.293883,114.19586 L 52.156136,114.19586 L 48.7354,110.01751 L 48.7354,113.2125 C 48.735399,113.53136 48.769836,113.73032 48.838711,113.80941 C 48.935643,113.91654 49.08487,113.9701 49.286391,113.9701 L 49.470054,113.9701 L 49.470054,114.11168 L 47.664029,114.11168 L 47.664029,113.9701 L 47.843866,113.9701 C 48.065792,113.9701 48.222671,113.90379 48.314504,113.77114 C 48.370623,113.68951 48.398682,113.5033 48.398684,113.2125 L 48.398684,109.60427 C 48.24818,109.42826 48.134029,109.3122 48.056227,109.25608 C 47.978424,109.19996 47.864273,109.14767 47.713771,109.09919 C 47.639795,109.07624 47.527557,109.06476 47.377055,109.06476 L 47.377055,108.92318 z M 56.709463,111.68196 L 56.709463,113.19336 C 56.709461,113.51988 56.745173,113.72267 56.8166,113.80175 C 56.913532,113.91399 57.060207,113.9701 57.256628,113.9701 L 57.455596,113.9701 L 57.455596,114.11168 L 55.232501,114.11168 L 55.232501,113.9701 L 55.427644,113.9701 C 55.647019,113.9701 55.803899,113.89868 55.898282,113.75584 C 55.949298,113.67675 55.974807,113.48927 55.974808,113.19336 L 55.974808,109.8415 C 55.974807,109.51499 55.940371,109.3122 55.871497,109.23311 C 55.772012,109.12088 55.624062,109.06476 55.427644,109.06476 L 55.232501,109.06476 L 55.232501,108.92318 L 57.134185,108.92318 C 57.598443,108.92319 57.964495,108.97102 58.232341,109.06667 C 58.50018,109.16234 58.725933,109.32368 58.9096,109.5507 C 59.093259,109.77773 59.185092,110.04685 59.185096,110.35806 C 59.185092,110.78151 59.04543,111.12587 58.766113,111.39117 C 58.486787,111.65646 58.092038,111.7891 57.581865,111.7891 C 57.456869,111.7891 57.321673,111.78018 57.176275,111.76232 C 57.030872,111.74447 56.875269,111.71768 56.709463,111.68196 L 56.709463,111.68196 z M 56.709463,111.46386 C 56.844658,111.48938 56.964549,111.50851 57.069138,111.52126 C 57.173722,111.53401 57.263003,111.54039 57.336981,111.54039 C 57.60227,111.54039 57.831211,111.43772 58.023805,111.23237 C 58.216395,111.02703 58.31269,110.7611 58.312693,110.43458 C 58.31269,110.21011 58.266774,110.00158 58.174946,109.80897 C 58.083111,109.61639 57.953016,109.47226 57.784661,109.37661 C 57.6163,109.28095 57.424983,109.23312 57.210712,109.23311 C 57.080615,109.23312 56.913532,109.25735 56.709463,109.30581 L 56.709463,111.46386 z M 61.102085,109.20633 L 61.102085,111.25724 L 62.24233,111.25724 C 62.53823,111.25724 62.735923,111.21261 62.83541,111.12332 C 62.968053,111.00599 63.042029,110.79936 63.057337,110.50346 L 63.198911,110.50346 L 63.198911,112.30948 L 63.057337,112.30948 C 63.021621,112.05695 62.985909,111.89496 62.9502,111.82354 C 62.90428,111.73426 62.82903,111.66411 62.724447,111.61309 C 62.619857,111.56208 62.459152,111.53657 62.24233,111.53656 L 61.102085,111.53656 L 61.102085,113.24693 C 61.102083,113.47651 61.112287,113.61617 61.132696,113.66591 C 61.153101,113.71566 61.188813,113.75519 61.239832,113.78453 C 61.290848,113.81386 61.387782,113.82853 61.530633,113.82853 L 62.410688,113.82853 C 62.704037,113.82853 62.917035,113.80813 63.049685,113.76731 C 63.182327,113.7265 63.309871,113.64614 63.432317,113.52626 C 63.590468,113.3681 63.752449,113.12959 63.91826,112.81073 L 64.071314,112.81073 L 63.623634,114.11168 L 59.625123,114.11168 L 59.625123,113.9701 L 59.808787,113.9701 C 59.931229,113.9701 60.047294,113.94077 60.156982,113.8821 C 60.23861,113.84129 60.294092,113.78007 60.323428,113.69844 C 60.352762,113.61681 60.367429,113.44973 60.36743,113.19719 L 60.36743,109.8262 C 60.367429,109.49714 60.334268,109.29434 60.267946,109.21781 C 60.176114,109.11578 60.02306,109.06476 59.808787,109.06476 L 59.625123,109.06476 L 59.625123,108.92318 L 63.623634,108.92318 L 63.681028,110.0596 L 63.531802,110.0596 C 63.478229,109.78666 63.418921,109.59917 63.353877,109.49714 C 63.288826,109.3951 63.192531,109.3173 63.06499,109.26372 C 62.962951,109.22547 62.783114,109.20634 62.525478,109.20633 L 61.102085,109.20633 z M 69.550612,114.11168 L 68.165482,114.11168 L 66.409198,111.68579 C 66.279102,111.6909 66.17324,111.69344 66.091614,111.69344 C 66.058451,111.69344 66.022738,111.69281 65.984476,111.69153 C 65.946212,111.69025 65.906673,111.68834 65.865861,111.68579 L 65.865861,113.19336 C 65.865859,113.51988 65.901571,113.72267 65.972997,113.80175 C 66.069929,113.91399 66.21533,113.9701 66.409198,113.9701 L 66.611994,113.9701 L 66.611994,114.11168 L 64.388899,114.11168 L 64.388899,113.9701 L 64.584042,113.9701 C 64.803417,113.9701 64.960296,113.89868 65.054679,113.75584 C 65.108247,113.67675 65.135031,113.48927 65.135032,113.19336 L 65.135032,109.8415 C 65.135031,109.51499 65.099319,109.3122 65.027895,109.23311 C 64.92841,109.12088 64.780459,109.06476 64.584042,109.06476 L 64.388899,109.06476 L 64.388899,108.92318 L 66.279103,108.92318 C 66.830092,108.92319 67.23632,108.96337 67.497788,109.04371 C 67.759251,109.12407 67.981177,109.27202 68.163569,109.48757 C 68.345953,109.70312 68.437147,109.96012 68.437151,110.25857 C 68.437147,110.57743 68.333199,110.85421 68.125305,111.08889 C 67.917405,111.32357 67.595356,111.48938 67.159158,111.58631 L 68.23053,113.07475 C 68.47541,113.41656 68.685858,113.6436 68.861873,113.75584 C 69.037879,113.86808 69.267459,113.9395 69.550612,113.9701 L 69.550612,114.11168 z M 65.865861,111.44473 C 65.914326,111.44473 65.956415,111.44537 65.992129,111.44665 C 66.02784,111.44792 66.057175,111.44856 66.080134,111.44856 C 66.575004,111.44856 66.94807,111.34142 67.199335,111.12714 C 67.450594,110.91288 67.576225,110.63993 67.576228,110.30831 C 67.576225,109.98436 67.474827,109.72098 67.272035,109.51818 C 67.069237,109.31539 66.800756,109.21399 66.466593,109.21399 C 66.31864,109.21399 66.118396,109.23822 65.865861,109.28668 L 65.865861,111.44473 z M 74.023587,108.92318 L 74.080982,110.13996 L 73.935581,110.13996 C 73.907517,109.92569 73.869254,109.77263 73.820792,109.6808 C 73.74171,109.53285 73.636486,109.4238 73.50512,109.35364 C 73.373745,109.2835 73.200923,109.24843 72.986653,109.24842 L 72.255825,109.24842 L 72.255825,113.2125 C 72.255821,113.53136 72.290258,113.73032 72.359135,113.80941 C 72.456066,113.91654 72.605292,113.9701 72.806816,113.9701 L 72.986653,113.9701 L 72.986653,114.11168 L 70.786516,114.11168 L 70.786516,113.9701 L 70.970179,113.9701 C 71.189553,113.9701 71.345157,113.90379 71.436991,113.77114 C 71.493108,113.68951 71.521168,113.5033 71.52117,113.2125 L 71.52117,109.24842 L 70.897479,109.24842 C 70.655144,109.24843 70.482959,109.26629 70.380924,109.30199 C 70.248278,109.35046 70.134764,109.44357 70.040382,109.58131 C 69.945999,109.71906 69.889879,109.90527 69.872023,110.13996 L 69.726623,110.13996 L 69.787845,108.92318 L 74.023587,108.92318 z M 77.865216,112.37453 L 75.856401,112.37453 L 75.504378,113.19336 C 75.417645,113.39488 75.374279,113.54538 75.374279,113.64487 C 75.374279,113.72395 75.411901,113.79346 75.487153,113.85341 C 75.562406,113.91335 75.725025,113.95225 75.975011,113.9701 L 75.975011,114.11168 L 74.341171,114.11168 L 74.341171,113.9701 C 74.557997,113.93185 74.698295,113.8821 74.762068,113.82088 C 74.892162,113.69844 75.036283,113.44973 75.194444,113.07475 L 77.0196,108.80457 L 77.153522,108.80457 L 78.95955,113.12066 C 79.104945,113.46759 79.236948,113.6927 79.355574,113.79601 C 79.474184,113.89932 79.63935,113.95735 79.85108,113.9701 L 79.85108,114.11168 L 77.803999,114.11168 L 77.803999,113.9701 C 78.010611,113.9599 78.150278,113.92547 78.222976,113.8668 C 78.295673,113.80813 78.332026,113.7367 78.332026,113.65252 C 78.332026,113.54028 78.281011,113.36299 78.178975,113.12066 L 77.865216,112.37453 z M 77.758078,112.09138 L 76.878029,109.99455 L 75.975011,112.09138 L 77.758078,112.09138 z M 79.8396,108.92318 L 81.247691,108.92318 L 84.419714,112.81455 L 84.419714,109.82237 C 84.419706,109.50351 84.383996,109.30454 84.312576,109.22547 C 84.218188,109.11833 84.068961,109.06476 83.864895,109.06476 L 83.68506,109.06476 L 83.68506,108.92318 L 85.491087,108.92318 L 85.491087,109.06476 L 85.30742,109.06476 C 85.088042,109.06476 84.932436,109.13109 84.84061,109.26372 C 84.784487,109.34536 84.756425,109.53158 84.756433,109.82237 L 84.756433,114.19586 L 84.618686,114.19586 L 81.197946,110.01751 L 81.197946,113.2125 C 81.197946,113.53136 81.232387,113.73032 81.30126,113.80941 C 81.398188,113.91654 81.547415,113.9701 81.748941,113.9701 L 81.932601,113.9701 L 81.932601,114.11168 L 80.126573,114.11168 L 80.126573,113.9701 L 80.306417,113.9701 C 80.528341,113.9701 80.685216,113.90379 80.77705,113.77114 C 80.833174,113.68951 80.861228,113.5033 80.861228,113.2125 L 80.861228,109.60427 C 80.710731,109.42826 80.59658,109.3122 80.518773,109.25608 C 80.440974,109.19996 80.326822,109.14767 80.176318,109.09919 C 80.102343,109.07624 79.990104,109.06476 79.8396,109.06476 L 79.8396,108.92318 z M 88.024111,113.9701 L 88.024111,114.11168 L 85.801014,114.11168 L 85.801014,113.9701 L 85.984681,113.9701 C 86.198961,113.9701 86.354551,113.90761 86.451491,113.78262 C 86.512711,113.70099 86.543321,113.50457 86.543321,113.19336 L 86.543321,109.8415 C 86.543321,109.57877 86.526741,109.4053 86.493581,109.32112 C 86.468071,109.25735 86.415781,109.20251 86.336701,109.15659 C 86.224461,109.09538 86.107124,109.06476 85.984681,109.06476 L 85.801014,109.06476 L 85.801014,108.92318 L 88.024111,108.92318 L 88.024111,109.06476 L 87.836621,109.06476 C 87.624901,109.06476 87.470571,109.12726 87.373641,109.25225 C 87.309861,109.33388 87.277981,109.5303 87.277981,109.8415 L 87.277981,113.19336 C 87.277981,113.4561 87.294561,113.62956 87.327721,113.71374 C 87.353231,113.77752 87.406801,113.83236 87.488431,113.87828 C 87.598111,113.9395 87.714181,113.9701 87.836621,113.9701 L 88.024111,113.9701 z M 91.808351,112.37453 L 89.799521,112.37453 L 89.447511,113.19336 C 89.360781,113.39488 89.317411,113.54538 89.317411,113.64487 C 89.317411,113.72395 89.355031,113.79346 89.430281,113.85341 C 89.505541,113.91335 89.668161,113.95225 89.918141,113.9701 L 89.918141,114.11168 L 88.284301,114.11168 L 88.284301,113.9701 C 88.501121,113.93185 88.641431,113.8821 88.705201,113.82088 C 88.835291,113.69844 88.979411,113.44973 89.137571,113.07475 L 90.962731,108.80457 L 91.096651,108.80457 L 92.902671,113.12066 C 93.048081,113.46759 93.180081,113.6927 93.298701,113.79601 C 93.417321,113.89932 93.582481,113.95735 93.794211,113.9701 L 93.794211,114.11168 L 91.747131,114.11168 L 91.747131,113.9701 C 91.953741,113.9599 92.093411,113.92547 92.166111,113.8668 C 92.238801,113.80813 92.275161,113.7367 92.275161,113.65252 C 92.275161,113.54028 92.224131,113.36299 92.122111,113.12066 L 91.808351,112.37453 z M 91.701211,112.09138 L 90.821151,109.99455 L 89.918141,112.09138 L 91.701211,112.09138 z M 93.782731,108.92318 L 95.190821,108.92318 L 98.362851,112.81455 L 98.362851,109.82237 C 98.362841,109.50351 98.327131,109.30454 98.255711,109.22547 C 98.161321,109.11833 98.012091,109.06476 97.808031,109.06476 L 97.628191,109.06476 L 97.628191,108.92318 L 99.434221,108.92318 L 99.434221,109.06476 L 99.250551,109.06476 C 99.031171,109.06476 98.875571,109.13109 98.783741,109.26372 C 98.727621,109.34536 98.699561,109.53158 98.699561,109.82237 L 98.699561,114.19586 L 98.561811,114.19586 L 95.141081,110.01751 L 95.141081,113.2125 C 95.141081,113.53136 95.175511,113.73032 95.244391,113.80941 C 95.341321,113.91654 95.490551,113.9701 95.692071,113.9701 L 95.875731,113.9701 L 95.875731,114.11168 L 94.069701,114.11168 L 94.069701,113.9701 L 94.249541,113.9701 C 94.471471,113.9701 94.628351,113.90379 94.720181,113.77114 C 94.776301,113.68951 94.804361,113.5033 94.804361,113.2125 L 94.804361,109.60427 C 94.653851,109.42826 94.539701,109.3122 94.461901,109.25608 C 94.384111,109.19996 94.269951,109.14767 94.119451,109.09919 C 94.045471,109.07624 93.933231,109.06476 93.782731,109.06476 L 93.782731,108.92318 z"
     id="text3267"
     style="fill:#229922;fill-opacity:1;stroke:none;stroke-width:1px;stroke-linecap:butt;stroke-linejoin:miter;stroke-opacity:1" />
</svg>
